<svg width="224" height="177" viewBox="0 0 224 177" fill="none" xmlns="http://www.w3.org/2000/svg">
                                <path d="M140.851 161.32L137.465 161.32L135.854 148.263L140.852 148.263L140.851 161.32Z" fill="#9E616A" />
                                <path d="M141.715 164.601L130.797 164.601V164.462C130.797 163.336 131.244 162.255 132.041 161.459C132.838 160.662 133.919 160.214 135.046 160.214H135.047L141.715 160.214L141.715 164.601Z" fill="#2F2E41" />
                                <path d="M128.699 161.32L125.312 161.32L123.702 148.263L128.699 148.263L128.699 161.32Z" fill="#9E616A" />
                                <path d="M129.562 164.601L118.644 164.601V164.462C118.644 163.336 119.092 162.255 119.888 161.459C120.685 160.662 121.766 160.214 122.893 160.214H122.894L129.562 160.214L129.562 164.601Z" fill="#2F2E41" />
                                <path d="M89.2611 69.8285C89.5317 70.2005 89.8806 70.5088 90.2833 70.7314C90.686 70.9541 91.1326 71.0858 91.5917 71.1172C92.0508 71.1487 92.5112 71.0791 92.9404 70.9134C93.3697 70.7478 93.7575 70.49 94.0763 70.1583L100.777 72.774L103.36 69.0913L93.8458 65.5303C93.2529 65.0318 92.4976 64.7679 91.7232 64.7888C90.9487 64.8097 90.2088 65.1139 89.6437 65.6437C89.0785 66.1735 88.7275 66.8921 88.6569 67.6634C88.5864 68.4347 88.8014 69.205 89.2611 69.8285V69.8285Z" fill="#9E616A" />
                                <path d="M128.656 92.1416L119.834 95.0183L122.781 157.474L129.589 157.642L133.074 113.598L133.865 157.468L142.283 157.932L145.387 92.1416H128.656Z" fill="#2F2E41" />
                                <path d="M122.703 55.3251L145.345 50.4073L147.863 69.8966L145.766 79.2087L146.606 93.3605C146.606 93.3605 128.703 102.268 119.834 95.0182C119.834 95.0182 126.962 76.3007 122.83 67.5386L122.703 55.3251Z" fill="#E4E4E4" />
                                <path d="M126.625 58.0818L122.703 55.3251C122.703 55.3251 122.472 55.0044 119.204 58.8232C115.937 62.642 109.308 68.7165 109.308 68.7165L98.2597 64.5748L96.2469 72.0091L109.087 77.9908L127.265 65.8543L126.625 58.0818Z" fill="#E4E4E4" />
                                <path d="M146.61 100.666C147.026 100.47 147.394 100.184 147.688 99.8303C147.982 99.4762 148.194 99.0621 148.311 98.6171C148.427 98.172 148.445 97.7069 148.362 97.2544C148.279 96.8019 148.098 96.373 147.831 95.998L151.65 89.9045L148.512 86.6814L143.24 95.3623C142.639 95.8518 142.239 96.5444 142.116 97.3089C141.992 98.0735 142.153 98.8569 142.568 99.5106C142.984 100.164 143.625 100.643 144.37 100.856C145.115 101.069 145.912 101.001 146.61 100.666Z" fill="#9E616A" />
                                <path d="M141.813 54.2466L145.345 50.4072C145.345 50.4072 149.28 49.0374 152.495 56.1158C155.709 63.1943 159.3 77.552 159.3 77.552L150.905 93.7176L144.385 90.8054L150.905 77.4379L144.006 67.5386L141.813 54.2466Z" fill="#E4E4E4" />
                                <path d="M135.825 48.8087C139.387 46.8624 140.696 42.3983 138.749 38.8378C136.802 35.2774 132.336 33.9689 128.775 35.9152C125.213 37.8615 123.904 42.3256 125.851 45.886C127.798 49.4465 132.264 50.755 135.825 48.8087Z" fill="#9E616A" />
                                <path d="M138.498 35.792C138.15 34.333 136.933 33.1815 135.534 32.6415C134.134 32.1016 132.575 32.1068 131.096 32.358C128.641 32.775 126.349 33.8334 124.09 34.8811L125.831 35.7138L123.428 35.8516L125.285 36.8115C124.789 37.1887 124.412 37.7001 124.198 38.2851C123.984 38.8701 123.943 39.5042 124.079 40.112C124.174 40.5098 124.43 40.9481 124.839 40.9619C125.333 40.9785 125.591 40.4025 125.937 40.0492C126.398 39.5791 127.125 39.4748 127.777 39.5634C128.429 39.6519 129.048 39.9028 129.691 40.0414C130.504 40.2109 131.345 40.2015 132.154 40.014C132.964 39.8265 133.723 39.4654 134.379 38.9556L136.694 44.5286C136.672 44.3184 136.699 44.1061 136.773 43.9081C136.847 43.7101 136.966 43.5318 137.12 43.3872C137.274 43.2427 137.459 43.1356 137.662 43.0745C137.864 43.0135 138.078 43 138.286 43.0351C138.495 43.0702 138.692 43.153 138.863 43.2771C139.034 43.4011 139.174 43.563 139.273 43.7501C139.371 43.9373 139.424 44.1445 139.429 44.3558C139.434 44.567 139.39 44.7765 139.3 44.9679C140.303 43.4568 141.109 41.7399 141.137 39.927C141.164 38.114 140.265 36.2042 138.618 35.4435" fill="#2F2E41" />
                                <path d="M53.3235 148.371L50.1929 153.291L52.0164 146.886C48.1663 142.869 42.8363 139.932 42.8363 139.932C42.8363 139.932 36.2732 150.715 38.0397 157.347C39.8061 163.98 44.3673 165.247 49.2331 163.952C54.0989 162.657 57.4266 159.291 55.6601 152.658C55.2669 151.182 54.4129 149.732 53.3235 148.371Z" fill="#F2F2F2" />
                                <path d="M49.1814 153.781L49.2684 154.108C50.2611 157.914 50.4096 161.05 49.7076 163.472C49.698 163.508 49.6863 163.542 49.6767 163.578L49.513 163.529L49.3562 163.481C50.1514 160.855 49.7965 157.536 48.9315 154.217C48.9047 154.11 48.8775 154.001 48.847 153.893C48.4684 152.491 48.0045 151.094 47.4997 149.752C47.4615 149.648 47.4213 149.542 47.3811 149.437C46.7055 147.668 45.9674 146.003 45.2835 144.568C45.2356 144.466 45.1861 144.365 45.137 144.266C43.9695 141.841 42.9798 140.123 42.7574 139.744C42.7311 139.697 42.7156 139.672 42.7123 139.666L42.8545 139.581L42.8556 139.579L42.9994 139.494C43.0028 139.5 43.0549 139.585 43.1459 139.745C43.4898 140.339 44.4033 141.96 45.4565 144.137C45.5036 144.236 45.5531 144.337 45.6009 144.438C46.1571 145.603 46.7469 146.912 47.3077 148.302C47.4492 148.651 47.5845 148.996 47.7136 149.338C47.7555 149.443 47.7957 149.548 47.8338 149.652C48.3798 151.103 48.829 152.48 49.1814 153.781Z" fill="white" />
                                <path d="M45.4565 144.137C45.3519 144.181 45.2457 144.224 45.137 144.266C44.842 144.377 44.5413 144.474 44.2364 144.556C42.937 144.903 41.5762 144.955 40.2542 144.707C40.209 144.811 40.1639 144.915 40.1176 145.021C41.5117 145.294 42.95 145.246 44.3226 144.879C44.6481 144.792 44.9689 144.689 45.2835 144.568C45.3906 144.527 45.4968 144.484 45.6009 144.438C46.4622 144.072 47.2627 143.576 47.9752 142.969C47.8819 142.899 47.7906 142.83 47.7014 142.761C47.0249 143.328 46.2685 143.792 45.4565 144.137Z" fill="white" />
                                <path d="M47.7136 149.338C47.6036 149.374 47.4928 149.407 47.3811 149.437C47.3475 149.447 47.3119 149.457 47.2779 149.466C45.8695 149.841 44.3913 149.87 42.9693 149.55C41.5474 149.23 40.2238 148.572 39.1115 147.63C39.0722 147.743 39.0329 147.856 38.9956 147.97C40.1456 148.916 41.5045 149.574 42.9598 149.891C44.4151 150.207 45.9249 150.173 47.3641 149.79C47.4094 149.777 47.4548 149.765 47.4997 149.752C47.6126 149.72 47.7234 149.687 47.8338 149.652C49.539 149.104 51.05 148.076 52.1862 146.691C52.1089 146.61 52.0317 146.528 51.9528 146.447C50.8512 147.802 49.378 148.807 47.7136 149.338Z" fill="white" />
                                <path d="M49.1813 153.781C49.0706 153.821 48.959 153.858 48.8469 153.893C48.7268 153.93 48.6062 153.966 48.4848 153.998C46.5917 154.499 44.587 154.374 42.771 153.642C40.9549 152.909 39.4251 151.608 38.4106 149.933C38.3726 150.084 38.3343 150.232 38.2996 150.382C39.3802 152.035 40.9543 153.305 42.7982 154.012C44.6421 154.719 46.662 154.827 48.571 154.322C48.6924 154.289 48.8134 154.255 48.9315 154.217C49.0456 154.183 49.1572 154.146 49.2684 154.108C51.51 153.32 53.3681 151.71 54.4665 149.603C54.4006 149.492 54.3303 149.385 54.2596 149.275C53.2174 151.38 51.3958 152.997 49.1813 153.781Z" fill="white" />
                                <path d="M175.438 148.884L172.353 153.732L174.15 147.42C170.356 143.462 165.103 140.567 165.103 140.567C165.103 140.567 158.636 151.194 160.376 157.73C162.117 164.267 166.612 165.515 171.407 164.238C176.202 162.962 179.482 159.645 177.741 153.109C177.353 151.654 176.512 150.226 175.438 148.884Z" fill="#F2F2F2" />
                                <path d="M171.356 154.216L171.442 154.538C172.42 158.288 172.567 161.379 171.875 163.766C171.865 163.801 171.854 163.835 171.844 163.87L171.683 163.822L171.529 163.775C172.312 161.187 171.963 157.916 171.11 154.645C171.084 154.539 171.057 154.432 171.027 154.326C170.654 152.944 170.197 151.568 169.699 150.245C169.661 150.142 169.622 150.038 169.582 149.934C168.916 148.192 168.189 146.551 167.515 145.136C167.468 145.036 167.419 144.936 167.371 144.838C166.22 142.449 165.245 140.756 165.026 140.382C165 140.336 164.984 140.311 164.981 140.305L165.121 140.222L165.122 140.22L165.264 140.136C165.267 140.142 165.319 140.226 165.409 140.383C165.747 140.969 166.648 142.566 167.686 144.712C167.732 144.809 167.781 144.909 167.828 145.009C168.376 146.156 168.957 147.446 169.51 148.816C169.649 149.16 169.783 149.5 169.91 149.837C169.951 149.94 169.991 150.044 170.028 150.147C170.566 151.577 171.009 152.933 171.356 154.216Z" fill="white" />
                                <path d="M167.685 144.712C167.582 144.755 167.478 144.798 167.371 144.838C167.08 144.949 166.784 145.044 166.483 145.124C165.203 145.467 163.862 145.518 162.559 145.273C162.514 145.376 162.47 145.478 162.424 145.583C163.798 145.852 165.215 145.805 166.568 145.443C166.889 145.358 167.205 145.255 167.515 145.136C167.62 145.096 167.725 145.053 167.828 145.009C168.677 144.647 169.465 144.159 170.168 143.561C170.076 143.492 169.986 143.423 169.898 143.356C169.231 143.914 168.486 144.371 167.685 144.712Z" fill="white" />
                                <path d="M169.91 149.837C169.801 149.872 169.692 149.905 169.582 149.934C169.549 149.945 169.514 149.954 169.48 149.963C168.092 150.332 166.636 150.361 165.234 150.046C163.833 149.731 162.529 149.082 161.433 148.154C161.394 148.265 161.355 148.376 161.318 148.488C162.452 149.421 163.791 150.07 165.225 150.382C166.659 150.694 168.147 150.659 169.565 150.282C169.61 150.27 169.655 150.258 169.699 150.245C169.81 150.213 169.919 150.181 170.028 150.147C171.709 149.606 173.198 148.593 174.317 147.229C174.241 147.148 174.165 147.068 174.087 146.988C173.002 148.324 171.55 149.314 169.91 149.837Z" fill="white" />
                                <path d="M171.356 154.216C171.247 154.255 171.137 154.291 171.027 154.326C170.908 154.362 170.789 154.397 170.67 154.429C168.804 154.923 166.829 154.8 165.039 154.078C163.249 153.356 161.742 152.074 160.742 150.423C160.705 150.572 160.667 150.718 160.633 150.866C161.698 152.494 163.249 153.746 165.066 154.443C166.883 155.14 168.874 155.247 170.755 154.748C170.874 154.716 170.994 154.683 171.11 154.645C171.222 154.612 171.332 154.576 171.442 154.538C173.651 153.761 175.482 152.174 176.565 150.098C176.5 149.989 176.43 149.883 176.361 149.775C175.334 151.85 173.539 153.442 171.356 154.216Z" fill="white" />
                                <path d="M111.587 28.4199C111.587 16.8216 103.498 7.41925 93.5206 7.41925C83.5428 7.41925 75.4542 16.8216 75.4542 28.4199C75.4542 38.939 82.1078 47.6516 90.7896 49.1818V51.1609C90.7896 51.5348 90.9382 51.8933 91.2026 52.1577C91.4671 52.4221 91.8258 52.5706 92.1997 52.5706H94.8415C95.2155 52.5706 95.5741 52.4221 95.8386 52.1577C96.103 51.8933 96.2516 51.5348 96.2516 51.1609V49.1819C104.933 47.6516 111.587 38.9391 111.587 28.4199Z" fill="#6C63FF" />
                                <path d="M90.3554 50.8748C90.9206 50.3441 91.5941 49.942 92.3295 49.6961C93.0649 49.4502 93.8449 49.3663 94.6158 49.4502C95.3928 49.5402 96.1382 49.8093 96.7933 50.2364C97.4485 50.6635 97.9954 51.2369 98.3911 51.9113C98.7869 52.5657 99.0355 53.2984 99.1198 54.0585C99.204 54.8185 99.1218 55.5878 98.8789 56.313C98.404 57.7592 97.3946 58.9627 96.3598 60.0474C95.2741 61.1854 94.0934 62.2349 93.0727 63.4342C91.3897 65.4236 90.2144 67.7914 89.6478 70.3345C89.0811 72.8777 89.14 75.5203 89.8194 78.0357C90.7149 81.224 92.564 84.0624 95.1187 86.1704C95.443 86.4354 95.7771 86.6878 96.1209 86.9276C96.5186 87.2059 96.8952 86.5538 96.5008 86.2778C93.7272 84.3163 91.6774 81.4958 90.6684 78.2526C89.9034 75.7252 89.8055 73.043 90.3843 70.4667C90.9631 67.8904 92.1988 65.5076 93.9714 63.55C95.0481 62.3616 96.2535 61.2979 97.3298 60.1092C98.3609 58.9705 99.3009 57.6857 99.7036 56.1813C99.9075 55.4164 99.958 54.6187 99.8523 53.8343C99.7466 53.0498 99.4867 52.2939 99.0876 51.6102C98.6904 50.9113 98.153 50.302 97.5091 49.8204C96.8653 49.3387 96.1288 48.9953 95.346 48.8115C93.7712 48.4693 92.1249 48.7542 90.7568 49.6057C90.4216 49.8195 90.1088 50.0664 89.8231 50.3427C89.4735 50.6793 90.0062 51.211 90.3554 50.8748V50.8748Z" fill="#3F3D56" />
                                <path d="M41.9684 19.6257C36.4405 6.92208 23.0999 0.476319 12.1712 5.22877C1.24245 9.98123 -3.13574 24.1322 2.39214 36.8359C7.40569 48.3575 18.8458 54.7313 29.0844 52.2722L30.0277 54.4399C30.2059 54.8494 30.5395 55.1713 30.9551 55.3349C31.3708 55.4986 31.8344 55.4904 32.244 55.3123L35.1375 54.054C35.5471 53.8759 35.8692 53.5424 36.0329 53.1269C36.1965 52.7113 36.1883 52.2478 36.0101 51.8383L35.0669 49.6707C43.8468 43.8594 46.982 31.1474 41.9684 19.6257Z" fill="#6C63FF" />
                                <path d="M29.3602 54.2688C29.7194 53.4416 30.2484 52.6991 30.913 52.0894C31.5775 51.4796 32.3628 51.0162 33.2179 50.7292C34.0576 50.4466 34.9489 50.3508 35.8295 50.4486C36.7101 50.5464 37.5587 50.8354 38.3158 51.2954C39.0959 51.7574 39.7684 52.3802 40.2886 53.1225C40.8089 53.8648 41.1648 54.7094 41.3328 55.6C41.7186 57.6641 41.0926 59.7665 40.3812 61.6882C39.6356 63.7027 38.7063 65.6592 38.1878 67.7511C37.4662 70.6912 37.4516 73.7605 38.1452 76.7074C38.8388 79.6543 40.2209 82.395 42.1782 84.705C44.6434 87.5608 47.8902 89.6336 51.5188 90.6682C51.9639 90.7936 52.4137 90.9007 52.8669 90.9925C53.3399 91.0882 53.5422 90.363 53.067 90.2668C49.2916 89.4899 45.8509 87.5594 43.221 84.7423C40.433 81.7291 38.7488 77.8603 38.4432 73.7671C38.2795 71.6934 38.4696 69.6068 39.0054 67.5968C39.5774 65.4757 40.5456 63.4897 41.2755 61.4231C41.9721 59.451 42.4657 57.3333 42.028 55.2463C41.6257 53.4088 40.5103 51.806 38.9268 50.79C38.1679 50.2897 37.3171 49.9453 36.4239 49.7766C35.5306 49.6079 34.6128 49.6183 33.7236 49.8073C31.9078 50.2186 30.3169 51.3059 29.2746 52.8481C29.021 53.2327 28.8066 53.6416 28.6344 54.0688C28.4493 54.5158 29.1773 54.7107 29.3602 54.2688L29.3602 54.2688Z" fill="#3F3D56" />
                                <path d="M196.385 173.068L200.442 173.068L202.372 157.422L196.384 157.422L196.385 173.068Z" fill="#FFB6B6" />
                                <path d="M195.35 171.744L203.34 171.743H203.341C204.691 171.743 205.987 172.28 206.942 173.234C207.897 174.189 208.433 175.484 208.433 176.834V176.999L195.35 177L195.35 171.744Z" fill="#2F2E41" />
                                <path d="M172.368 169.619L176.237 170.842L182.798 156.507L177.088 154.702L172.368 169.619Z" fill="#FFB6B6" />
                                <path d="M171.781 168.044L179.4 170.453L179.4 170.453C180.688 170.861 181.761 171.762 182.383 172.961C183.006 174.159 183.127 175.555 182.719 176.842L182.67 177L170.195 173.056L171.781 168.044Z" fill="#2F2E41" />
                                <path d="M181.504 101.613L179.253 107.961L179.189 142.234L172.804 165.699L180.642 167.886L189.3 145.76L192.078 126.326L195.737 145.873L195.234 169.106H203.458L204.078 133.304C204.253 123.249 202.493 113.255 198.894 103.864V103.864L181.504 101.613Z" fill="#2F2E41" />
                                <path d="M178.823 75.8969H192.116L197.67 81.4495L199.33 104.401L179.253 107.631L172.803 85.7319L176.316 76.4247L178.823 75.8969Z" fill="#E4E4E4" />
                                <path d="M174.042 85.9509L153.576 78.2528L153.043 75.0706L165.95 64.1523L170.246 67.3736L162.46 75.8969L176.316 76.4247L174.042 85.9509Z" fill="#E4E4E4" />
                                <path d="M168.433 68.6181C170.261 68.6181 171.742 67.1368 171.742 65.3095C171.742 63.4822 170.261 62.0009 168.433 62.0009C166.605 62.0009 165.123 63.4822 165.123 65.3095C165.123 67.1368 166.605 68.6181 168.433 68.6181Z" fill="#FFB6B6" />
                                <path d="M176.108 69.4777L177.604 62.7361C177.866 61.5488 178.36 60.4248 179.057 59.4283C179.754 58.4318 180.64 57.5824 181.666 56.9287C182.691 56.275 183.836 55.8297 185.034 55.6184C186.231 55.407 187.459 55.4337 188.646 55.697C189.834 55.9602 190.958 56.4549 191.954 57.1526C192.95 57.8503 193.799 58.7374 194.452 59.7633C195.105 60.7891 195.549 61.9335 195.759 63.1311C195.97 64.3287 195.942 65.556 195.677 66.7428L194.182 73.4844C194.11 73.8061 193.913 74.0861 193.635 74.2632C193.357 74.4402 193.02 74.4998 192.699 74.4288L177.053 70.9603C176.731 70.8886 176.451 70.6922 176.274 70.4142C176.097 70.1363 176.037 69.7995 176.108 69.4777Z" fill="#2F2E41" />
                                <path d="M186.412 72.0188C190.011 70.976 192.084 67.2133 191.041 63.6146C189.998 60.0159 186.234 57.9438 182.634 58.9866C179.034 60.0294 176.962 63.792 178.005 67.3908C179.048 70.9895 182.812 73.0615 186.412 72.0188Z" fill="#FFB6B6" />
                                <path d="M175.346 62.8015C175.769 60.9073 176.926 59.2581 178.563 58.2155C180.2 57.1729 182.184 56.8221 184.08 57.2401L185.429 57.5392C187.324 57.9615 188.973 59.1179 190.016 60.7546C191.059 62.3914 191.41 64.3749 190.992 66.27L190.962 66.4048L188.112 65.7729L187.743 62.836L186.945 65.5143L185.472 65.1877L185.286 63.7059L184.883 65.0572L175.317 62.9363L175.346 62.8015Z" fill="#2F2E41" />
                                <path d="M182.199 72.8964C182.105 72.6856 182.073 72.4526 182.106 72.2243C182.139 71.996 182.236 71.7817 182.385 71.606C184.417 69.2052 187.532 64.6271 185.563 60.9413L185.422 60.6765L193.133 62.3861L190.566 73.96L183.286 73.6426C183.212 73.6394 183.139 73.6298 183.067 73.6139C182.876 73.5715 182.697 73.4844 182.546 73.3596C182.395 73.2349 182.276 73.0761 182.199 72.8964Z" fill="#2F2E41" />
                                <path d="M191.587 76.0359L213.237 79.1132L214.447 82.1042L204.216 95.5611L199.323 93.3482L205.075 83.3394L191.435 85.8285L191.587 76.0359Z" fill="#E4E4E4" />
                                <path d="M224 32.4078C224 18.5543 214.339 7.32373 202.421 7.32373C190.503 7.32373 180.841 18.5543 180.841 32.4078C180.841 44.9724 188.789 55.379 199.159 57.2068V59.5707C199.159 60.0173 199.336 60.4456 199.652 60.7613C199.968 61.0771 200.396 61.2545 200.843 61.2545H203.998C204.445 61.2545 204.874 61.0771 205.189 60.7613C205.505 60.4456 205.683 60.0173 205.683 59.5707V57.2068C216.053 55.379 224 44.9724 224 32.4078Z" fill="#6C63FF" />
                                <path d="M198.588 59.1773C199.273 58.5336 200.09 58.0463 200.982 57.7493C201.874 57.4522 202.82 57.3525 203.755 57.457C204.673 57.5651 205.554 57.8807 206.332 58.3797C207.11 58.8788 207.764 59.5483 208.245 60.3375C208.734 61.1163 209.049 61.9919 209.167 62.904C209.286 63.8161 209.205 64.743 208.931 65.6209C208.399 67.3443 207.23 68.7872 206.012 70.0806C204.712 71.4604 203.289 72.722 202.046 74.1556C200.021 76.5086 198.598 79.3181 197.899 82.3425C197.2 85.3669 197.246 88.5158 198.034 91.5184C199.087 95.3776 201.313 98.8147 204.405 101.355C204.78 101.66 205.166 101.952 205.564 102.229C205.961 102.507 206.338 101.855 205.944 101.579C202.633 99.24 200.181 95.8802 198.964 92.0147C198.039 88.9974 197.908 85.7929 198.583 82.7103C199.258 79.6276 200.717 76.771 202.818 74.4161C204.095 72.9909 205.534 71.7213 206.825 70.3099C208.062 68.9583 209.198 67.4409 209.706 65.6549C209.962 64.7528 210.036 63.809 209.925 62.878C209.813 61.947 209.518 61.0474 209.057 60.2312C208.597 59.3964 207.97 58.6656 207.215 58.0846C206.459 57.5036 205.592 57.0848 204.667 56.8546C202.788 56.4227 200.814 56.75 199.174 57.7653C198.772 58.0194 198.398 58.3143 198.056 58.6452C197.707 58.9823 198.24 59.5141 198.588 59.1773Z" fill="#3F3D56" />
                                <path d="M201.198 99.3879C203.026 99.3879 204.508 97.9066 204.508 96.0793C204.508 94.252 203.026 92.7708 201.198 92.7708C199.37 92.7708 197.888 94.252 197.888 96.0793C197.888 97.9066 199.37 99.3879 201.198 99.3879Z" fill="#FFB6B6" />
                                <path d="M166.709 66.2384C166.536 66.5128 166.115 66.4729 165.879 66.3014C165.551 66.0632 165.657 65.6045 165.883 65.3335C166.601 64.4721 167.788 65.3815 167.948 66.237C168.008 66.6541 167.943 67.0795 167.763 67.4605C167.583 67.8414 167.295 68.1611 166.935 68.38C166.116 68.8651 165.052 68.6218 164.348 68.0412C162.879 66.8299 163.279 64.4048 164.911 63.5285C165.952 62.9693 167.268 63.2147 168.294 63.6832C169.449 64.2105 170.442 65.0188 171.509 65.6925C173.852 67.1585 176.502 68.0632 179.253 68.3357C179.734 68.3848 179.731 67.6319 179.253 67.5832C177.728 67.4257 176.232 67.0655 174.803 66.5122C173.39 65.9394 172.048 65.2032 170.805 64.3186C169.548 63.4571 168.235 62.6203 166.679 62.4779C166.051 62.4046 165.415 62.4988 164.835 62.7509C164.256 63.0031 163.753 63.4041 163.379 63.9133C163.046 64.369 162.823 64.8956 162.728 65.4517C162.632 66.0079 162.667 66.5786 162.829 67.119C163.025 67.6842 163.367 68.1875 163.82 68.5777C164.273 68.9678 164.822 69.231 165.41 69.3403C165.976 69.4472 166.562 69.3748 167.085 69.1333C167.608 68.8917 168.043 68.4929 168.328 67.9926C168.901 67.0026 168.882 65.6726 168.017 64.8518C167.769 64.5998 167.459 64.4182 167.118 64.3255C166.777 64.2327 166.417 64.2321 166.076 64.3239C165.761 64.4301 165.484 64.6257 165.279 64.8867C165.074 65.1476 164.949 65.4627 164.92 65.7934C164.837 67.0786 166.662 67.7213 167.359 66.6182C167.619 66.2076 166.968 65.8296 166.709 66.2384Z" fill="#3F3D56" />
                                <path d="M16.1082 106.68L15.1141 107.927L11.5977 105.848L12.5918 104.601L16.1082 106.68Z" fill="#E4E4E4" />
                                <path d="M19.7774 112.038L20.6557 113.348L16.9616 115.185L16.0834 113.875L19.7774 112.038Z" fill="#E4E4E4" />
                                <path d="M23.6015 106.343L25.3565 106.405L25.1818 110.075L23.4269 110.014L23.6015 106.343Z" fill="#E4E4E4" />
                                <path d="M57.5103 7.34739L56.5162 8.59432L52.9998 6.51485L53.9939 5.26767L57.5103 7.34739Z" fill="#E4E4E4" />
                                <path d="M61.1795 12.7053L62.0578 14.0155L58.3637 15.8524L57.4855 14.5422L61.1795 12.7053Z" fill="#E4E4E4" />
                                <path d="M65.0036 7.00974L66.7586 7.07169L66.5839 10.7425L64.829 10.6805L65.0036 7.00974Z" fill="#E4E4E4" />
                                <path d="M155.119 20.3911L154.125 21.6381L150.608 19.5586L151.603 18.3114L155.119 20.3911Z" fill="#E4E4E4" />
                                <path d="M158.788 25.7491L159.666 27.0592L155.972 28.8961L155.094 27.586L158.788 25.7491Z" fill="#E4E4E4" />
                                <path d="M162.612 20.0535L164.367 20.1154L164.192 23.7862L162.438 23.7243L162.612 20.0535Z" fill="#E4E4E4" />
                                <path d="M125.259 2.07972L124.265 3.32665L120.749 1.24718L121.743 0L125.259 2.07972Z" fill="#E4E4E4" />
                                <path d="M128.928 7.43768L129.807 8.74782L126.113 10.5847L125.234 9.27459L128.928 7.43768Z" fill="#E4E4E4" />
                                <path d="M132.753 1.7421L134.507 1.80405L134.333 5.47486L132.578 5.4129L132.753 1.7421Z" fill="#E4E4E4" />
                                <path d="M155.617 95.8212L154.623 97.2687L158.14 99.6825L159.134 98.235L155.617 95.8212Z" fill="#E4E4E4" />
                                <path d="M159.109 106.586L159.987 108.107L163.681 105.975L162.803 104.454L159.109 106.586Z" fill="#E4E4E4" />
                                <path d="M166.452 102.104L168.207 102.176L168.382 97.915L166.627 97.8431L166.452 102.104Z" fill="#E4E4E4" />
                                <path d="M81.0225 161.509L84.0624 161.039L81.9783 136.758L75.2034 138.012L81.0225 161.509Z" fill="#FFB6B6" />
                                <path d="M80.0934 160.637L86.0805 159.711L86.0807 159.711C87.0926 159.555 88.1252 159.807 88.9514 160.411C89.7775 161.016 90.3296 161.924 90.4861 162.936L90.5052 163.06L80.7026 164.575L80.0934 160.637Z" fill="#2F2E41" />
                                <path d="M49.0708 161.208L52.1441 161.339L55.8823 139.768L49.1074 139.768L49.0708 161.208Z" fill="#FFB6B6" />
                                <path d="M48.3294 160.172L54.3822 160.429H54.3824C55.4054 160.473 56.3692 160.921 57.0617 161.675C57.7542 162.429 58.1188 163.427 58.0753 164.45L58.0699 164.575L48.1598 164.153L48.3294 160.172Z" fill="#2F2E41" />
                                <path d="M55.1219 90.9275C54.9768 90.8867 54.8284 90.8591 54.6784 90.8449L56.5944 75.1672L63.0955 61.404C63.5045 60.5382 63.5699 59.5496 63.2784 58.6375C62.987 57.7255 62.3604 56.9579 61.525 56.4895C60.6896 56.0211 59.7077 55.8868 58.7772 56.1138C57.8467 56.3407 57.0369 56.9119 56.5111 57.7122V57.7123C54.8072 60.3057 53.5183 63.1489 52.6909 66.1395L49.9596 76.0117L51.9568 92.9416C51.8802 93.4188 51.9432 93.908 52.1381 94.3502C52.3331 94.7924 52.6518 95.1689 53.0557 95.4344C53.4597 95.6999 53.9318 95.843 54.4153 95.8465C54.8987 95.8501 55.3729 95.7139 55.7807 95.4544C56.1885 95.1948 56.5126 94.823 56.714 94.3837C56.9155 93.9443 56.9856 93.4562 56.916 92.9779C56.8464 92.4997 56.64 92.0517 56.3217 91.6879C56.0035 91.3242 55.5868 91.0601 55.1219 90.9275H55.1219Z" fill="#FFB6B6" />
                                <path d="M59.0691 76.4942L50.8555 67.101L54.9245 57.5335C55.4573 56.2806 56.4588 55.2855 57.7153 54.7606C58.9718 54.2356 60.3838 54.2224 61.6499 54.7237C62.9161 55.2249 63.9361 56.2011 64.4923 57.4437C65.0486 58.6863 65.0969 60.0971 64.6272 61.3749L59.0691 76.4942Z" fill="#2F2E41" />
                                <path d="M72.7228 46.5495C74.6989 42.9357 73.3703 38.4048 69.7554 36.4293C66.1404 34.4538 61.608 35.7819 59.6319 39.3957C57.6558 43.0095 58.9843 47.5405 62.5993 49.516C66.2142 51.4914 70.7467 50.1633 72.7228 46.5495Z" fill="#FFB6B6" />
                                <path d="M67.4247 33.9129H62.606C59.4469 33.9129 56.886 36.793 56.886 40.3458L57.109 48.9633C60.5224 49.3878 63.861 50.2805 67.0307 51.6162L67.4805 49.6961L68.3676 52.2248C69.1567 52.6069 69.939 53.0248 70.7146 53.4785C69.8093 49.2264 69.4367 44.9843 70.0583 41.6889H71.6904V39.9034L72.2444 41.6889H75.2033V41.6889C75.2033 40.6678 75.0021 39.6566 74.6112 38.7132C74.2203 37.7697 73.6473 36.9125 72.925 36.1904C72.2027 35.4683 71.3452 34.8956 70.4015 34.5048C69.4577 34.114 68.4462 33.9129 67.4247 33.9129Z" fill="#2F2E41" />
                                <path d="M83.1368 138.077L82.4386 138.245L81.8527 127.351L77.5871 94.7418L72.6941 82.3252L75.0778 73.6711C75.0778 73.6711 77.838 67.651 70.9376 63.0104L65.4173 53.7293C61.6041 51.2368 58.4667 52.8666 56.7943 57.1031C55.3371 60.7945 54.2059 65.4645 54.8786 70.2848C56.3857 81.0824 57.6388 82.3252 57.6388 82.3252C57.6388 82.3252 48.2292 92.735 50.2366 106.03L49.1178 140.451L48.0943 140.409L47.9822 143.143L56.9241 143.51L57.0362 140.776L56.2945 140.745L59.5207 127.1L64.2882 109.04L72.5686 131.114L75.3538 139.951L74.4362 140.172L75.0771 142.832L83.7777 140.737L83.1368 138.077Z" fill="#2F2E41" />
                                <path d="M89.2817 76.2658C89.1804 76.3773 89.0893 76.4977 89.0096 76.6255L75.8354 67.9071L66.4232 55.9434C65.8311 55.1907 64.9756 54.6906 64.0292 54.5437C63.0827 54.3969 62.1158 54.6143 61.3234 55.1521C60.531 55.6899 59.9721 56.5082 59.7594 57.4417C59.5467 58.3753 59.6961 59.3548 60.1774 60.1826C61.737 62.8652 63.7056 65.2883 66.0122 67.3644L73.6267 74.2182L89.67 79.9964C90.0628 80.2781 90.5287 80.4403 91.0116 80.4636C91.4945 80.4868 91.9738 80.3701 92.3918 80.1274C92.8099 79.8847 93.1489 79.5264 93.3681 79.0957C93.5873 78.6649 93.6772 78.18 93.6272 77.6993C93.5772 77.2186 93.3893 76.7626 93.0861 76.3862C92.7829 76.0097 92.3773 75.7289 91.9183 75.5774C91.4592 75.426 90.9661 75.4104 90.4983 75.5325C90.0306 75.6546 89.6081 75.9093 89.2817 76.2658H89.2817Z" fill="#FFB6B6" />
                                <path d="M78.1286 66.2868L66.0527 69.4356L59.3085 61.5217C58.4254 60.4854 57.9823 59.1451 58.074 57.7868C58.1656 56.4285 58.7846 55.1598 59.7989 54.2514C60.8133 53.343 62.1426 52.8669 63.5032 52.9247C64.8638 52.9824 66.1479 53.5695 67.0815 54.5605L78.1286 66.2868Z" fill="#2F2E41" />
                                <path d="M171.73 164.83H9.30927C9.23003 164.83 9.15403 164.799 9.098 164.743C9.04197 164.687 9.0105 164.611 9.0105 164.532C9.0105 164.453 9.04197 164.377 9.098 164.321C9.15403 164.265 9.23003 164.233 9.30927 164.233H171.73C171.809 164.233 171.885 164.265 171.941 164.321C171.997 164.377 172.028 164.453 172.028 164.532C172.028 164.611 171.997 164.687 171.941 164.743C171.885 164.799 171.809 164.83 171.73 164.83Z" fill="#CACACA" />
                            </svg>
                        